<svg xmlns="http://www.w3.org/2000/svg" viewBox="0 0 512 512" fill="none"><defs><linearGradient id="rainbow-wave" x1="0" y1="256" x2="512" y2="256" gradientUnits="userSpaceOnUse"><stop offset="0" stop-color="#E81416" /><stop offset="0.17" stop-color="#FFA500" /><stop offset="0.33" stop-color="#FAEB36" /><stop offset="0.5" stop-color="#79C314" /><stop offset="0.67" stop-color="#487DE7" /><stop offset="0.83" stop-color="#4B369D" /><stop offset="1" stop-color="#70369D" /></linearGradient><clipPath id="icon-circle"><circle cx="256" cy="256" r="248" /></clipPath></defs><circle cx="256" cy="256" r="248" fill="#FFFFFF" /><g clip-path="url(#icon-circle)"><path d="M0.000 256.000 L2.133 256.011 L4.267 256.061 L6.400 256.165 L8.533 256.335 L10.667 256.575 L12.800 256.889 L14.933 257.274 L17.067 257.728 L19.200 258.243 L21.333 258.810 L23.467 259.417 L25.600 260.049 L27.733 260.691 L29.867 261.324 L32.000 261.930 L34.133 262.488 L36.267 262.979 L38.400 263.382 L40.533 263.677 L42.667 263.847 L44.800 263.873 L46.933 263.740 L49.067 263.435 L51.200 262.948 L53.333 262.270 L55.467 261.398 L57.600 260.330 L59.733 259.069 L61.867 257.623 L64.000 256.000 L66.133 254.216 L68.267 252.289 L70.400 250.240 L72.533 248.094 L74.667 245.880 L76.800 243.627 L78.933 241.371 L81.067 239.145 L83.200 236.985 L85.333 234.930 L87.467 233.017 L89.600 231.283 L91.733 229.763 L93.867 228.493 L96.000 227.504 L98.133 226.827 L100.267 226.488 L102.400 226.508 L104.533 226.906 L106.667 227.695 L108.800 228.882 L110.933 230.470 L113.067 232.456 L115.200 234.831 L117.333 237.579 L119.467 240.680 L121.600 244.108 L123.733 247.829 L125.867 251.807 L128.000 256.000 L130.133 260.361 L132.267 264.839 L134.400 269.381 L136.533 273.931 L138.667 278.430 L140.800 282.820 L142.933 287.041 L145.067 291.035 L147.200 294.743 L149.333 298.111 L151.467 301.087 L153.600 303.622 L155.733 305.673 L157.867 307.200 L160.000 308.172 L162.133 308.562 L164.267 308.350 L166.400 307.526 L168.533 306.084 L170.667 304.028 L172.800 301.370 L174.933 298.130 L177.067 294.334 L179.200 290.018 L181.333 285.224 L183.467 280.000 L185.600 274.403 L187.733 268.492 L189.867 262.335 L192.000 256.000 L194.133 249.561 L196.267 243.094 L198.400 236.676 L200.533 230.385 L202.667 224.296 L204.800 218.486 L206.933 213.027 L209.067 207.988 L211.200 203.435 L213.333 199.426 L215.467 196.015 L217.600 193.249 L219.733 191.165 L221.867 189.795 L224.000 189.161 L226.133 189.276 L228.267 190.144 L230.400 191.760 L232.533 194.110 L234.667 197.169 L236.800 200.907 L238.933 205.282 L241.067 210.245 L243.200 215.740 L245.333 221.704 L247.467 228.069 L249.600 234.760 L251.733 241.700 L253.867 248.808 L256.000 256.000 L258.133 263.192 L260.267 270.300 L262.400 277.240 L264.533 283.931 L266.667 290.296 L268.800 296.260 L270.933 301.755 L273.067 306.718 L275.200 311.093 L277.333 314.831 L279.467 317.890 L281.600 320.240 L283.733 321.856 L285.867 322.724 L288.000 322.839 L290.133 322.205 L292.267 320.835 L294.400 318.751 L296.533 315.985 L298.667 312.574 L300.800 308.565 L302.933 304.012 L305.067 298.973 L307.200 293.514 L309.333 287.704 L311.467 281.615 L313.600 275.324 L315.733 268.906 L317.867 262.439 L320.000 256.000 L322.133 249.665 L324.267 243.508 L326.400 237.597 L328.533 232.000 L330.667 226.776 L332.800 221.982 L334.933 217.666 L337.067 213.870 L339.200 210.630 L341.333 207.972 L343.467 205.916 L345.600 204.474 L347.733 203.650 L349.867 203.438 L352.000 203.828 L354.133 204.800 L356.267 206.327 L358.400 208.378 L360.533 210.913 L362.667 213.889 L364.800 217.257 L366.933 220.965 L369.067 224.959 L371.200 229.180 L373.333 233.570 L375.467 238.069 L377.600 242.619 L379.733 247.161 L381.867 251.639 L384.000 256.000 L386.133 260.193 L388.267 264.171 L390.400 267.892 L392.533 271.320 L394.667 274.421 L396.800 277.169 L398.933 279.544 L401.067 281.530 L403.200 283.118 L405.333 284.305 L407.467 285.094 L409.600 285.492 L411.733 285.512 L413.867 285.173 L416.000 284.496 L418.133 283.507 L420.267 282.237 L422.400 280.717 L424.533 278.983 L426.667 277.070 L428.800 275.015 L430.933 272.855 L433.067 270.629 L435.200 268.373 L437.333 266.120 L439.467 263.906 L441.600 261.760 L443.733 259.711 L445.867 257.784 L448.000 256.000 L450.133 254.377 L452.267 252.931 L454.400 251.670 L456.533 250.602 L458.667 249.730 L460.800 249.052 L462.933 248.565 L465.067 248.260 L467.200 248.127 L469.333 248.153 L471.467 248.323 L473.600 248.618 L475.733 249.021 L477.867 249.512 L480.000 250.070 L482.133 250.676 L484.267 251.309 L486.400 251.951 L488.533 252.583 L490.667 253.190 L492.800 253.757 L494.933 254.272 L497.067 254.726 L499.200 255.111 L501.333 255.425 L503.467 255.665 L505.600 255.835 L507.733 255.939 L509.867 255.989 L512.000 256.000 L512.000 256.000" stroke="url(#rainbow-wave)" stroke-width="12" stroke-linecap="round" stroke-linejoin="round" /></g></svg>